<svg width="28" height="28" viewBox="0 0 28 28" fill="none" xmlns="http://www.w3.org/2000/svg">
<path fill-rule="evenodd" clip-rule="evenodd" d="M11.6917 2C9.24388 2 8.16477 2.21562 7.06946 2.8014C6.09426 3.32294 5.32294 4.09426 4.8014 5.06946C4.21562 6.16477 4 7.24388 4 9.69166V18.3083C4 20.7561 4.21562 21.8352 4.8014 22.9305C5.32294 23.9057 6.09426 24.6771 7.06946 25.1986C8.16477 25.7844 9.24388 26 11.6917 26H16.3083C18.7561 26 19.8352 25.7844 20.9305 25.1986C21.9057 24.6771 22.6771 23.9057 23.1986 22.9305C23.7844 21.8352 24 20.7561 24 18.3083V12.3588C24 11.5621 23.9722 11.2037 23.878 10.7947C23.7846 10.3895 23.6329 10.0234 23.4125 9.67084C23.1899 9.31494 22.9561 9.04186 22.3927 8.47851L17.5215 3.60727C16.9581 3.04393 16.6851 2.81012 16.3292 2.58754C15.9766 2.36706 15.6105 2.21543 15.2053 2.12204C14.8634 2.04323 14.5568 2.0109 14 2.00241V2H11.6917ZM11.6917 4C9.35671 4 8.67339 4.21166 8.01266 4.56502C7.386 4.90017 6.90017 5.386 6.56503 6.01266C6.21167 6.67339 6 7.35671 6 9.69166V18.3083C6 20.6433 6.21167 21.3266 6.56503 21.9873C6.90017 22.614 7.386 23.0998 8.01266 23.435C8.67339 23.7883 9.35671 24 11.6917 24H16.3083C18.6433 24 19.3266 23.7883 19.9873 23.435C20.614 23.0998 21.0998 22.614 21.435 21.9873C21.7883 21.3266 22 20.6433 22 18.3083V12.3588C22 12.2215 21.9992 12.1031 21.9976 11.9996L16.5 12C15.1193 12 14 10.8807 14 9.5L14.0015 4.00245C13.9473 4.00157 13.8891 4.00094 13.8261 4.00054L11.6917 4ZM16.1073 5.02149L16 4.915V9.5C16 9.74546 16.1769 9.94961 16.4101 9.99194L16.5 10L21.0873 10.0021C21.0531 9.9675 21.0169 9.93111 20.9785 9.89273L16.1073 5.02149ZM9 20C9 19.4477 9.44772 19 10 19H14C14.5523 19 15 19.4477 15 20C15 20.5523 14.5523 21 14 21H10C9.44772 21 9 20.5523 9 20ZM10 15C9.44772 15 9 15.4477 9 16C9 16.5523 9.44772 17 10 17H17C17.5523 17 18 16.5523 18 16C18 15.4477 17.5523 15 17 15H10Z" fill="#5AC583"/>
</svg>
