<svg width="28" height="29" viewBox="0 0 28 29" fill="none" xmlns="http://www.w3.org/2000/svg">
<path d="M14 2.5C20.624 2.5 26 7.876 26 14.5C26 21.124 20.624 26.5 14 26.5C7.376 26.5 2 21.124 2 14.5C2 7.876 7.376 2.5 14 2.5ZM14 4.5C8.48056 4.5 4 8.98056 4 14.5C4 20.0194 8.48056 24.5 14 24.5C19.5194 24.5 24 20.0194 24 14.5C24 8.98056 19.5194 4.5 14 4.5ZM14 18.6004C14.7732 18.6004 15.4 19.2272 15.4 20.0004C15.4 20.7736 14.7732 21.4004 14 21.4004C13.2268 21.4004 12.6 20.7736 12.6 20.0004C12.6 19.2272 13.2268 18.6004 14 18.6004ZM13.934 7.49C15.9848 7.49 17.6458 9.16812 17.6458 11.24C17.6458 12.065 17.3118 12.815 16.7828 13.3494L15.9477 14.2119C15.451 14.7206 15.0928 15.1621 14.9416 15.9328C14.928 16.0023 14.918 16.1057 14.9117 16.2428C14.8887 16.7367 14.4816 17.1254 13.9871 17.1254H13.9779C13.4651 17.1255 13.0494 16.7098 13.0494 16.197L13.0494 16.1946C13.0501 15.9345 13.0582 15.7641 13.0737 15.6834C13.2173 14.9363 13.5814 14.2659 14.0918 13.7431L15.2424 12.5619C15.5717 12.2306 15.7899 11.7556 15.7899 11.24C15.7899 10.2087 14.9548 9.365 13.934 9.365C13.2854 9.365 12.7117 9.70568 12.3796 10.2187C12.3139 10.3201 12.2313 10.4819 12.1318 10.7039C11.9356 11.1412 11.4388 11.3574 10.9851 11.2027L10.9496 11.1906C10.4866 11.0328 10.2391 10.5295 10.3969 10.0665C10.4027 10.0496 10.409 10.0329 10.4157 10.0163C10.4818 9.85503 10.5453 9.71248 10.6062 9.58867C11.2436 8.29205 12.4437 7.49 13.934 7.49Z" fill="#5AC583"/>
</svg>
