<svg width="28" height="29" viewBox="0 0 28 29" fill="none" xmlns="http://www.w3.org/2000/svg">
<path d="M14 2.5C20.6274 2.5 26 7.87258 26 14.5C26 21.1274 20.6274 26.5 14 26.5C7.37258 26.5 2 21.1274 2 14.5C2 7.87258 7.37258 2.5 14 2.5ZM14 4.5C8.47715 4.5 4 8.97715 4 14.5C4 20.0228 8.47715 24.5 14 24.5C19.5228 24.5 24 20.0228 24 14.5C24 8.97715 19.5228 4.5 14 4.5ZM14.0736 12.5C14.3112 12.5 14.4604 12.5371 14.5907 12.6069C14.7211 12.6766 14.8234 12.7789 14.8931 12.9093C14.9629 13.0396 15 13.1888 15 13.4264V19.5736C15 19.8112 14.9629 19.9604 14.8931 20.0907C14.8234 20.2211 14.7211 20.3234 14.5907 20.3931C14.4604 20.4629 14.3112 20.5 14.0736 20.5H13.9264C13.6888 20.5 13.5396 20.4629 13.4093 20.3931C13.2789 20.3234 13.1766 20.2211 13.1069 20.0907C13.0371 19.9604 13 19.8112 13 19.5736V13.4264C13 13.1888 13.0371 13.0396 13.1069 12.9093C13.1766 12.7789 13.2789 12.6766 13.4093 12.6069C13.5396 12.5371 13.6888 12.5 13.9264 12.5H14.0736ZM14 8.1C14.7732 8.1 15.4 8.7268 15.4 9.5C15.4 10.2732 14.7732 10.9 14 10.9C13.2268 10.9 12.6 10.2732 12.6 9.5C12.6 8.7268 13.2268 8.1 14 8.1Z" fill="#5AC583"/>
</svg>
