<svg width="30" height="29" viewBox="0 0 30 29" fill="none" xmlns="http://www.w3.org/2000/svg">
<path d="M9.85507 5.53687C6.25118 5.59654 3.37802 8.56644 3.43769 12.1703C3.4975 15.7826 4.97222 17.5667 11.0975 22.1701L13.9118 24.2852C14.6432 24.8349 15.6544 24.8182 16.3672 24.2445L19.11 22.0375C25.0795 17.2338 26.4944 15.4019 26.4345 11.7896C26.3749 8.18568 23.405 5.31252 19.8011 5.37219C17.9298 5.40317 16.2779 6.28101 14.8692 7.94073C13.4064 6.32855 11.7263 5.50589 9.85507 5.53687ZM9.88818 7.5366C11.4072 7.51144 12.7905 8.34617 14.0832 10.1508L14.2937 10.4447C14.535 10.7815 15.0035 10.8589 15.3402 10.6177C15.4137 10.5651 15.4771 10.4995 15.5273 10.4243L15.728 10.1236C16.9602 8.27714 18.3152 7.39707 19.8342 7.37192C22.3337 7.33053 24.3934 9.32321 24.4348 11.8227C24.4808 14.6026 23.3671 16.0446 17.8561 20.4793L15.1134 22.6864L12.2991 20.5713C6.64431 16.3215 5.48345 14.9171 5.43742 12.1372C5.39604 9.63775 7.38871 7.57798 9.88818 7.5366Z" fill="#5AC583"/>
</svg>
