<svg width="16" height="17" viewBox="0 0 16 17" fill="none" xmlns="http://www.w3.org/2000/svg">
<path d="M7.99964 11.4588L11.2511 13.4448C11.2775 13.4609 11.3092 13.4659 11.3393 13.4587C11.4023 13.4437 11.4411 13.3806 11.4261 13.3176L10.5421 9.61162L13.4356 7.13302C13.4591 7.11288 13.4737 7.08427 13.4761 7.05341C13.4813 6.98892 13.4332 6.93246 13.3687 6.92729L9.57095 6.62282L8.1078 3.10499C8.09592 3.07641 8.07321 3.0537 8.04463 3.04182C7.98489 3.01697 7.91633 3.04526 7.89148 3.10499L6.42833 6.62282L2.63054 6.92729C2.59969 6.92976 2.57108 6.94434 2.55094 6.96785C2.50885 7.01698 2.51456 7.09093 2.5637 7.13302L5.45721 9.61162L4.5732 13.3176C4.56602 13.3477 4.57104 13.3794 4.58717 13.4059C4.6209 13.4611 4.69299 13.4785 4.7482 13.4448L7.99964 11.4588ZM7.99964 12.798L5.34392 14.4201C4.75006 14.7828 3.97459 14.5954 3.61186 14.0016C3.43833 13.7175 3.38429 13.3763 3.46153 13.0524L4.18358 10.0255L1.8202 8.00097C1.29171 7.54826 1.23028 6.75284 1.68299 6.22435C1.89956 5.97153 2.20738 5.81469 2.53922 5.78808L5.64119 5.5394L6.83626 2.6661C7.1035 2.02358 7.841 1.71936 8.48352 1.98659C8.79089 2.11444 9.03518 2.35873 9.16303 2.6661L10.3581 5.5394L13.4601 5.78808C14.1537 5.84369 14.671 6.45109 14.6153 7.14474C14.5887 7.47658 14.4319 7.7844 14.1791 8.00097L11.8157 10.0255L12.5378 13.0524C12.6992 13.7293 12.2814 14.409 11.6045 14.5704C11.2807 14.6477 10.9395 14.5936 10.6554 14.4201L7.99964 12.798Z" fill="#818C99"/>
<path d="M7.99964 11.4588L11.2511 13.4448C11.2775 13.4609 11.3092 13.4659 11.3393 13.4587C11.4023 13.4437 11.4411 13.3806 11.4261 13.3176L10.5421 9.61162L13.4356 7.13302C13.4591 7.11288 13.4737 7.08427 13.4761 7.05341C13.4813 6.98892 13.4332 6.93246 13.3687 6.92729L9.57095 6.62282L8.1078 3.10499C8.09592 3.07641 8.07321 3.0537 8.04463 3.04182C7.98489 3.01697 7.91633 3.04526 7.89148 3.10499L6.42833 6.62282L2.63054 6.92729C2.59969 6.92976 2.57108 6.94434 2.55094 6.96785C2.50885 7.01698 2.51456 7.09093 2.5637 7.13302L5.45721 9.61162L4.5732 13.3176C4.56602 13.3477 4.57104 13.3794 4.58717 13.4059C4.6209 13.4611 4.69299 13.4785 4.7482 13.4448L7.99964 11.4588Z" fill="#818C99"/>
</svg>
