<svg width="29" height="29" viewBox="0 0 29 29" fill="none" xmlns="http://www.w3.org/2000/svg">
<path d="M9.27127 5.50546C5.66886 5.62479 2.84527 8.64185 2.96459 12.2443C3.0842 15.8551 4.58825 17.6145 10.7889 22.1159L13.6378 24.1841C14.3783 24.7216 15.389 24.6881 16.0923 24.1028L18.7981 21.8506C24.6873 16.9487 26.0716 15.0936 25.952 11.4828C25.8327 7.88042 22.8156 5.05682 19.2132 5.17615C17.3427 5.23811 15.7055 6.14317 14.3246 7.82599C12.8353 6.23825 11.1418 5.4435 9.27127 5.50546ZM9.33748 7.50437C10.8558 7.45407 12.2529 8.26579 13.5752 10.0488L13.7906 10.3392C14.0373 10.6719 14.5071 10.7416 14.8398 10.4948C14.9124 10.4409 14.9747 10.3744 15.0236 10.2983L15.2193 9.99435C16.4208 8.12773 17.7611 7.22535 19.2794 7.17505C21.7778 7.09229 23.8703 9.0506 23.9531 11.549C24.0451 14.3278 22.9554 15.7881 17.5186 20.3134L14.8128 22.5656L11.9639 20.4974C6.2395 16.3418 5.05554 14.9568 4.9635 12.178C4.88074 9.6796 6.83904 7.58712 9.33748 7.50437Z" fill="#5AC583"/>
</svg>
